<svg width="20.000000" height="18.000000" viewBox="0 0 20 18" fill="none" xmlns="http://www.w3.org/2000/svg" xmlns:xlink="http://www.w3.org/1999/xlink">
	<defs/>
	<rect id="Mod" width="20.000000" height="17.688562" fill="#FFFFFF" fill-opacity="0"/>
	<mask id="mask_3_6027" fill="white">
		<path id="Union" d="M18.861 15.0887L11.5008 1.86804L11.5007 1.86792Q11.3611 1.61719 11.16 1.43359L11.16 1.43359Q11.0264 1.31177 10.8657 1.21948Q10.6805 1.11316 10.481 1.05835L10.481 1.05835Q10.2689 1 10.0407 1Q9.81256 1 9.6004 1.05835Q9.40094 1.11316 9.2157 1.21948Q9.05499 1.31177 8.92139 1.43372L8.92133 1.43372Q8.72034 1.61719 8.58069 1.86792L1.2204 15.0889Q1.09656 15.3113 1.04175 15.5496L1.04175 15.5496Q0.994751 15.7538 0.998474 15.9696Q1.00214 16.1815 1.05396 16.3809L1.05396 16.381Q1.10962 16.5953 1.22083 16.7952Q1.34814 17.0239 1.52826 17.198L1.5285 17.1982Q1.65509 17.3206 1.8078 17.4159Q1.99432 17.5323 2.19739 17.5942L2.19757 17.5942Q2.42834 17.6646 2.68048 17.6646L17.4009 17.6646Q17.6532 17.6646 17.884 17.5942L17.884 17.5942Q18.0871 17.5323 18.2736 17.4159Q18.4263 17.3206 18.5529 17.1982L18.553 17.1982L18.5535 17.1976Q18.7335 17.0237 18.8606 16.7952Q18.9718 16.5953 19.0275 16.3811L19.0275 16.3811Q19.0793 16.1816 19.0829 15.9696Q19.0867 15.754 19.0398 15.55Q18.985 15.3115 18.861 15.0887ZM10.5022 2.42395L10.5023 2.42395L17.8625 15.6449Q17.9119 15.7335 17.9299 15.828Q17.9413 15.8878 17.9402 15.9498Q17.939 16.0189 17.9232 16.0842L17.923 16.085Q17.9034 16.1648 17.8619 16.2394Q17.8062 16.3397 17.7234 16.4071Q17.6973 16.4285 17.6685 16.4464Q17.6207 16.4762 17.5688 16.4943Q17.4896 16.5217 17.4009 16.5217L2.68048 16.5217Q2.59186 16.5217 2.5127 16.4943L2.5127 16.4943L2.51251 16.4943Q2.46069 16.4762 2.41296 16.4464Q2.38477 16.4288 2.35907 16.408L2.35803 16.4071L2.35797 16.4071Q2.27527 16.3397 2.21948 16.2394Q2.1778 16.1646 2.15826 16.0842L2.15814 16.0837Q2.1424 16.0186 2.14117 15.95Q2.14014 15.8881 2.15143 15.8286Q2.16943 15.7338 2.21899 15.6448L9.57916 2.42395Q9.64178 2.31152 9.73615 2.24219L9.73621 2.24219L9.73621 2.24219Q9.75946 2.2251 9.78467 2.21069Q9.83783 2.18018 9.89502 2.16333Q9.96484 2.14282 10.0407 2.14282Q10.1164 2.14282 10.1861 2.16321L10.1864 2.16333Q10.2436 2.18018 10.2968 2.21069Q10.322 2.2251 10.3452 2.24219L10.3453 2.24219Q10.4396 2.31152 10.5022 2.42395ZM10.0417 6.27551C10.5129 6.27551 10.894 6.68701 10.8801 7.18225L10.7416 12.2659C10.7311 12.6665 10.4193 12.9833 10.0382 12.9833C9.6571 12.9833 9.34528 12.6628 9.3349 12.2659L9.19977 7.18225C9.18939 6.68701 9.56702 6.27551 10.0417 6.27551ZM9.15625 14.5527C9.15625 15.0588 9.54779 15.4703 10.0294 15.4703C10.5109 15.4703 10.9025 15.0588 10.9025 14.5527C10.9025 14.0465 10.5109 13.635 10.0294 13.635C9.54779 13.635 9.15625 14.0465 9.15625 14.5527Z" clip-rule="evenodd" fill="" fill-opacity="1.000000" fill-rule="evenodd"/>
	</mask>
	<path id="Union" d="M18.861 15.0887L11.5008 1.86804L11.5007 1.86792Q11.3611 1.61719 11.16 1.43359L11.16 1.43359Q11.0264 1.31177 10.8657 1.21948Q10.6805 1.11316 10.481 1.05835L10.481 1.05835Q10.2689 1 10.0407 1Q9.81256 1 9.6004 1.05835Q9.40094 1.11316 9.2157 1.21948Q9.05499 1.31177 8.92139 1.43372L8.92133 1.43372Q8.72034 1.61719 8.58069 1.86792L1.2204 15.0889Q1.09656 15.3113 1.04175 15.5496L1.04175 15.5496Q0.994751 15.7538 0.998474 15.9696Q1.00214 16.1815 1.05396 16.3809L1.05396 16.381Q1.10962 16.5953 1.22083 16.7952Q1.34814 17.0239 1.52826 17.198L1.5285 17.1982Q1.65509 17.3206 1.8078 17.4159Q1.99432 17.5323 2.19739 17.5942L2.19757 17.5942Q2.42834 17.6646 2.68048 17.6646L17.4009 17.6646Q17.6532 17.6646 17.884 17.5942L17.884 17.5942Q18.0871 17.5323 18.2736 17.4159Q18.4263 17.3206 18.5529 17.1982L18.553 17.1982L18.5535 17.1976Q18.7335 17.0237 18.8606 16.7952Q18.9718 16.5953 19.0275 16.3811L19.0275 16.3811Q19.0793 16.1816 19.0829 15.9696Q19.0867 15.754 19.0398 15.55Q18.985 15.3115 18.861 15.0887ZM10.5022 2.42395L10.5023 2.42395L17.8625 15.6449Q17.9119 15.7335 17.9299 15.828Q17.9413 15.8878 17.9402 15.9498Q17.939 16.0189 17.9232 16.0842L17.923 16.085Q17.9034 16.1648 17.8619 16.2394Q17.8062 16.3397 17.7234 16.4071Q17.6973 16.4285 17.6685 16.4464Q17.6207 16.4762 17.5688 16.4943Q17.4896 16.5217 17.4009 16.5217L2.68048 16.5217Q2.59186 16.5217 2.5127 16.4943L2.5127 16.4943L2.51251 16.4943Q2.46069 16.4762 2.41296 16.4464Q2.38477 16.4288 2.35907 16.408L2.35803 16.4071L2.35797 16.4071Q2.27527 16.3397 2.21948 16.2394Q2.1778 16.1646 2.15826 16.0842L2.15814 16.0837Q2.1424 16.0186 2.14117 15.95Q2.14014 15.8881 2.15143 15.8286Q2.16943 15.7338 2.21899 15.6448L9.57916 2.42395Q9.64178 2.31152 9.73615 2.24219L9.73621 2.24219L9.73621 2.24219Q9.75946 2.2251 9.78467 2.21069Q9.83783 2.18018 9.89502 2.16333Q9.96484 2.14282 10.0407 2.14282Q10.1164 2.14282 10.1861 2.16321L10.1864 2.16333Q10.2436 2.18018 10.2968 2.21069Q10.322 2.2251 10.3452 2.24219L10.3453 2.24219Q10.4396 2.31152 10.5022 2.42395ZM10.0417 6.27551C10.5129 6.27551 10.894 6.68701 10.8801 7.18225L10.7416 12.2659C10.7311 12.6665 10.4193 12.9833 10.0382 12.9833C9.6571 12.9833 9.34528 12.6628 9.3349 12.2659L9.19977 7.18225C9.18939 6.68701 9.56702 6.27551 10.0417 6.27551ZM9.15625 14.5527C9.15625 15.0588 9.54779 15.4703 10.0294 15.4703C10.5109 15.4703 10.9025 15.0588 10.9025 14.5527C10.9025 14.0465 10.5109 13.635 10.0294 13.635C9.54779 13.635 9.15625 14.0465 9.15625 14.5527Z" clip-rule="evenodd" fill="#EC8532" fill-opacity="1.000000" fill-rule="evenodd" mask="url(#mask_3_6027)"/>
	<path id="Union" d="" fill="#EC8532" fill-opacity="0.000000" fill-rule="nonzero"/>
</svg>
