<svg width="16.000000" height="16.000000" viewBox="0 0 16 16" fill="none" xmlns="http://www.w3.org/2000/svg" xmlns:xlink="http://www.w3.org/1999/xlink">
	<defs>
		<clipPath id="clip3_5990">
			<rect id="free-icon-telegram-1532443 1" width="16.000000" height="16.000000" fill="white" fill-opacity="0"/>
		</clipPath>
	</defs>
	<rect id="free-icon-telegram-1532443 1" width="16.000000" height="16.000000" fill="#FFFFFF" fill-opacity="0"/>
	<g clip-path="url(#clip3_5990)">
		<path id="Vector" d="M15.88 0.64C15.74 0.48 15.52 0.44 15.34 0.52L0.28 7.11C0.11 7.19 0 7.35 0 7.53C-0.01 7.71 0.09 7.88 0.26 7.96L3.85 9.73L4.75 15.11C4.78 15.31 4.94 15.48 5.15 15.51C5.3 15.53 5.45 15.47 5.55 15.37L8.39 12.53L12.44 15.42C12.57 15.52 12.74 15.54 12.89 15.48C13.03 15.42 13.14 15.29 13.17 15.13L15.99 1.04C16.01 0.9 15.98 0.75 15.88 0.64ZM4.23 8.87L1.58 7.57L12.04 2.99L4.23 8.87ZM5.69 10.26L5.26 12.44L4.79 9.62L10.53 5.29L5.82 10.02C5.75 10.09 5.71 10.18 5.69 10.26ZM5.98 13.62L6.47 11.16L7.62 11.98L5.98 13.62ZM12.4 14.24L6.87 10.29L14.76 2.38L12.4 14.24Z" fill="#4198C5" fill-opacity="1.000000" fill-rule="nonzero"/>
	</g>
</svg>
